<svg width="396" height="200" viewBox="0 0 396 200" fill="none" xmlns="http://www.w3.org/2000/svg">
<g clip-path="url(#clip0_3020_432)">
<path fill-rule="evenodd" clip-rule="evenodd" d="M196.027 10.408C203.265 10.0993 203.958 32.4946 205.305 41.2722C205.288 41.9478 205.406 42.6202 205.654 43.251C205.902 43.8817 206.274 44.4585 206.75 44.9484C207.225 45.4383 207.795 45.8316 208.426 46.1059C209.057 46.3803 209.737 46.5302 210.427 46.5472C211.118 46.5608 211.804 46.4411 212.448 46.1948C213.091 45.9485 213.678 45.5806 214.176 45.1119C214.674 44.6433 215.073 44.0832 215.349 43.4637C215.626 42.8441 215.775 42.1773 215.788 41.5013C215.018 36.4181 207.933 -9.0552 191.34 1.61634C183.271 6.8165 175.316 40.5287 173.238 48.9134C171.159 57.2982 158.756 98.3289 170.486 105.082C188.641 115.524 208.922 59.9404 213.91 59.2202C218.21 58.5983 234.932 97.4544 223.9 97.3188C219.209 97.2814 210.269 93.9612 205.401 92.6424C210.547 95.6868 218.779 100.326 225.185 100.073C239.041 99.5121 222.672 52.0981 212.959 54.1183C210.666 54.5859 206.71 60.2864 202.926 66.4032C199.142 72.5199 196.041 77.7341 194.575 79.8338C194.575 79.8338 171.393 111.895 172.76 91.8474C173.945 74.4185 177.06 63.3214 181.837 47.2066C185.932 33.4486 188.861 10.7306 196.041 10.408H196.027Z" fill="#FF4806"/>
</g>
<g clip-path="url(#clip1_3020_432)">
<path d="M17.1164 186.054C14.0344 186.1 11.0026 185.284 8.37575 183.699C5.79566 182.135 3.68328 179.928 2.25339 177.301C0.77255 174.475 0 171.343 0 168.164C0 164.986 0.77255 161.853 2.25339 159.027C3.69863 156.412 5.80765 154.208 8.37575 152.629C10.994 151.021 14.0291 150.191 17.1164 150.236C19.5909 150.199 22.0373 150.757 24.2418 151.861C26.335 152.927 28.1031 154.519 29.3663 156.475C30.6294 158.43 31.3423 160.68 31.4323 162.994V173.36C31.3276 175.702 30.6049 177.978 29.3351 179.963C28.0913 181.888 26.3464 183.452 24.2809 184.493C22.0578 185.579 19.5983 186.115 17.1164 186.054ZM18.2236 179.899C19.7174 179.955 21.2056 179.689 22.5832 179.118C23.9607 178.548 25.1939 177.687 26.1957 176.597C28.2624 174.263 29.3434 171.242 29.2179 168.151C29.2579 166.016 28.7801 163.902 27.824 161.984C26.9451 160.264 25.5907 158.823 23.9161 157.825C22.1861 156.808 20.2001 156.289 18.1846 156.327C16.1644 156.273 14.1692 156.777 12.426 157.781C10.6828 158.786 9.26144 160.25 8.32364 162.009C7.34699 163.88 6.85486 165.959 6.89075 168.062C6.84626 170.19 7.33852 172.296 8.32364 174.191C9.24899 175.919 10.6418 177.363 12.3488 178.363C14.1155 179.387 16.1333 179.918 18.1846 179.899H18.2236ZM28.775 185.337V176.06L30.0776 167.64L28.775 159.309V150.902H35.4965V178.734C35.4965 180.486 34.7884 182.165 33.5278 183.403C32.2673 184.642 30.5576 185.337 28.775 185.337Z" fill="#FF4806"/>
<path d="M56.3141 186.054C54.4154 186.069 52.5245 185.815 50.6997 185.299C48.986 184.819 47.3564 184.085 45.8669 183.124C45.347 182.767 44.9136 182.302 44.5974 181.762C44.2813 181.222 44.0903 180.62 44.0381 180C43.9859 179.379 44.0736 178.754 44.2952 178.171C44.5167 177.587 44.8666 177.059 45.3198 176.623L46.388 175.574C47.5697 177.046 49.0867 178.225 50.8169 179.016C52.5784 179.787 54.49 180.172 56.4183 180.142C58.0841 180.233 59.7432 179.87 61.2119 179.093C61.7405 178.799 62.1782 178.371 62.4787 177.852C62.7791 177.334 62.9311 176.746 62.9184 176.149C62.9456 175.589 62.8357 175.031 62.5977 174.521C62.3597 174.011 62.0006 173.564 61.5506 173.219C60.4933 172.445 59.3079 171.856 58.0466 171.479C56.6137 171.018 55.1026 170.57 53.5004 170.135C51.9322 169.71 50.4131 169.127 48.9672 168.395C47.5655 167.69 46.3621 166.657 45.4631 165.387C44.5103 163.879 44.0553 162.118 44.1605 160.346C44.0753 158.444 44.5903 156.563 45.6348 154.959C46.6794 153.356 48.2027 152.109 49.9963 151.388C52.1158 150.502 54.4019 150.066 56.7048 150.108C59.2274 150.064 61.7311 150.543 64.0517 151.516C66.1632 152.447 67.9842 153.913 69.3273 155.764L65.0417 159.975C64.0555 158.742 62.7943 157.748 61.3552 157.07C59.8311 156.372 58.1646 156.026 56.4834 156.059C54.9508 155.965 53.4239 156.316 52.0935 157.07C51.6448 157.357 51.2732 157.747 51.0102 158.205C50.7473 158.664 50.6006 159.178 50.5827 159.704C50.5648 160.23 50.6762 160.753 50.9075 161.227C51.1387 161.702 51.483 162.115 51.9112 162.431C52.9839 163.147 54.1671 163.687 55.4152 164.031L59.9484 165.375C61.5126 165.831 63.0234 166.449 64.4555 167.217C65.8576 167.972 67.0583 169.042 67.9596 170.34C68.9299 171.872 69.4066 173.656 69.3273 175.458C69.3892 176.918 69.1048 178.371 68.4966 179.703C67.8885 181.036 66.9733 182.211 65.8233 183.136C63.1108 185.195 59.737 186.23 56.3141 186.054Z" fill="#FF4806"/>
<path d="M92.6989 186.055C89.4225 186.102 86.1946 185.275 83.359 183.662C80.6353 182.112 78.3857 179.871 76.8459 177.174C75.2579 174.381 74.4209 171.236 74.4141 168.036C74.4073 164.836 75.2307 161.688 76.8068 158.888C78.3591 156.223 80.6076 154.014 83.3199 152.489C86.1635 150.9 89.3884 150.087 92.6598 150.135C95.2428 150.113 97.8021 150.619 100.176 151.619C102.472 152.599 104.516 154.073 106.155 155.932L101.726 160.283C100.649 159.029 99.2822 158.046 97.7401 157.416C96.131 156.758 94.4027 156.427 92.6598 156.444C90.5886 156.408 88.5459 156.921 86.7459 157.928C85.0382 158.901 83.6365 160.318 82.6947 162.023C81.7189 163.885 81.2098 165.949 81.2098 168.044C81.2098 170.138 81.7189 172.202 82.6947 174.065C83.6462 175.772 85.0448 177.199 86.7459 178.198C88.5388 179.225 90.5848 179.747 92.6598 179.708C94.416 179.731 96.1583 179.4 97.7792 178.735C99.1361 178.124 100.65 177.932 102.121 178.186C103.591 178.44 104.948 179.127 106.012 180.156L106.103 180.245C104.5 182.068 102.501 183.516 100.254 184.481C97.8781 185.527 95.3025 186.063 92.6989 186.055Z" fill="#FF4806"/>
<path d="M128.255 186.055C124.937 186.113 121.663 185.3 118.772 183.7C116.037 182.173 113.76 179.967 112.167 177.302C110.582 174.495 109.75 171.337 109.75 168.127C109.75 164.916 110.582 161.759 112.167 158.952C113.743 156.256 116.023 154.023 118.771 152.482C121.518 150.941 124.635 150.149 127.799 150.186C130.8 150.136 133.758 150.888 136.357 152.361C138.848 153.788 140.883 155.872 142.232 158.376C143.664 161.085 144.385 164.102 144.329 167.154C144.329 167.641 144.329 168.152 144.264 168.715C144.199 169.335 144.099 169.95 143.964 170.558H114.382V165.12H140.434L138.024 167.205C138.07 165.166 137.624 163.144 136.722 161.306C135.937 159.738 134.707 158.426 133.179 157.531C131.493 156.595 129.578 156.13 127.642 156.188C125.553 156.142 123.488 156.645 121.663 157.646C119.962 158.59 118.577 160 117.677 161.703C116.7 163.61 116.216 165.724 116.27 167.858C116.211 170.079 116.722 172.28 117.755 174.256C118.703 176.038 120.167 177.503 121.963 178.466C123.887 179.481 126.045 179.992 128.229 179.951C130.091 179.969 131.938 179.621 133.661 178.927L134.064 178.761C135.399 178.143 136.896 177.946 138.35 178.198C139.803 178.45 141.141 179.139 142.18 180.168C140.482 182.084 138.361 183.594 135.979 184.583C133.535 185.59 130.905 186.091 128.255 186.055Z" fill="#FF4806"/>
<path d="M151.578 185.338V150.902H158.222V178.811C158.222 180.542 157.522 182.202 156.276 183.426C155.03 184.65 153.34 185.338 151.578 185.338ZM176.328 185.338V165.285C176.401 162.917 175.516 160.616 173.866 158.887C173.026 158.033 172.011 157.363 170.889 156.922C169.766 156.481 168.561 156.278 167.353 156.328C165.699 156.296 164.067 156.698 162.624 157.492C161.265 158.24 160.142 159.343 159.381 160.679C158.579 162.094 158.17 163.691 158.196 165.311L155.473 163.788C155.426 161.359 156.037 158.961 157.245 156.84C158.408 154.816 160.116 153.147 162.182 152.015C164.368 150.811 166.84 150.197 169.346 150.236C171.84 150.191 174.292 150.873 176.393 152.194C178.413 153.479 180.074 155.238 181.226 157.313C182.394 159.361 183.004 161.671 182.998 164.018V178.811C182.998 180.563 182.289 182.242 181.029 183.48C179.768 184.719 178.059 185.414 176.276 185.414L176.328 185.338Z" fill="#FF4806"/>
<path d="M188.336 156.837V150.899H212.278V156.837H188.336ZM196.972 185.335V136.465H203.603V178.809C203.603 180.538 202.905 182.196 201.662 183.419C200.419 184.643 198.732 185.332 196.972 185.335Z" fill="#FF4806"/>
<path d="M229.212 186.054C227.314 186.068 225.423 185.814 223.598 185.299C221.884 184.819 220.255 184.085 218.765 183.124C218.245 182.767 217.812 182.302 217.496 181.762C217.18 181.222 216.989 180.62 216.937 180C216.884 179.379 216.972 178.754 217.194 178.171C217.415 177.587 217.765 177.059 218.218 176.623L219.286 175.574C220.468 177.046 221.985 178.225 223.715 179.016C225.477 179.787 227.388 180.172 229.317 180.142C230.987 180.232 232.649 179.869 234.123 179.093C234.649 178.797 235.083 178.367 235.381 177.849C235.679 177.331 235.829 176.744 235.817 176.149C235.844 175.589 235.734 175.031 235.496 174.521C235.258 174.011 234.899 173.564 234.449 173.219C233.392 172.445 232.206 171.856 230.945 171.479C229.512 171.018 228.001 170.57 226.412 170.135C224.839 169.712 223.315 169.129 221.866 168.395C220.466 167.687 219.264 166.655 218.362 165.387C217.409 163.879 216.954 162.118 217.059 160.346C216.974 158.444 217.489 156.563 218.533 154.959C219.578 153.356 221.101 152.109 222.895 151.388C225.014 150.502 227.3 150.066 229.603 150.108C232.126 150.064 234.63 150.543 236.95 151.516C239.062 152.447 240.883 153.913 242.226 155.764L237.953 159.975C236.958 158.745 235.693 157.752 234.254 157.07C232.729 156.372 231.063 156.026 229.382 156.059C227.849 155.965 226.322 156.316 224.992 157.07C224.543 157.357 224.172 157.747 223.909 158.205C223.646 158.664 223.499 159.178 223.481 159.704C223.463 160.23 223.575 160.753 223.806 161.227C224.037 161.702 224.381 162.115 224.81 162.431C225.882 163.147 227.066 163.687 228.314 164.031L232.86 165.375C234.421 165.829 235.927 166.447 237.354 167.217C238.756 167.972 239.957 169.042 240.858 170.34C241.828 171.872 242.305 173.656 242.226 175.458C242.288 176.918 242.003 178.371 241.395 179.703C240.787 181.036 239.872 182.211 238.722 183.136C236.009 185.195 232.635 186.23 229.212 186.054Z" fill="#FF4806"/>
<path d="M249.508 199.76V150.903H256.151V159.963L254.849 168.293L256.151 176.713V193.234C256.151 194.091 255.979 194.94 255.646 195.731C255.312 196.523 254.822 197.243 254.205 197.849C253.589 198.455 252.856 198.935 252.05 199.263C251.244 199.591 250.38 199.76 249.508 199.76ZM267.966 186.055C265.467 186.093 262.995 185.535 260.763 184.43C258.68 183.389 256.914 181.827 255.643 179.9C254.346 177.924 253.604 175.646 253.494 173.297V162.931C253.597 160.57 254.349 158.279 255.669 156.303C256.986 154.388 258.78 152.838 260.88 151.798C263.088 150.702 265.532 150.145 268.005 150.173C271.067 150.134 274.075 150.965 276.668 152.566C279.234 154.139 281.336 156.345 282.764 158.964C284.22 161.798 284.979 164.927 284.979 168.101C284.979 171.275 284.22 174.405 282.764 177.238C281.351 179.868 279.245 182.077 276.668 183.636C274.062 185.243 271.042 186.083 267.966 186.055ZM266.859 179.9C268.868 179.951 270.851 179.444 272.579 178.436C274.308 177.429 275.711 175.962 276.629 174.205C277.622 172.312 278.119 170.205 278.075 168.076C278.114 165.971 277.617 163.89 276.629 162.023C275.708 160.269 274.304 158.806 272.576 157.801C270.848 156.796 268.866 156.29 266.859 156.341C264.865 156.298 262.899 156.809 261.187 157.814C259.475 158.819 258.086 160.278 257.18 162.023C256.271 163.929 255.8 166.009 255.8 168.114C255.8 170.219 256.271 172.299 257.18 174.205C258.049 175.935 259.406 177.383 261.088 178.377C262.83 179.401 264.829 179.929 266.859 179.9Z" fill="#FF4806"/>
<path d="M307.372 186.054C304.29 186.1 301.258 185.284 298.631 183.699C296.044 182.139 293.926 179.931 292.496 177.301C291.015 174.475 290.242 171.343 290.242 168.164C290.242 164.986 291.015 161.853 292.496 159.027C293.942 156.408 296.056 154.203 298.631 152.629C301.249 151.021 304.284 150.191 307.372 150.236C309.846 150.199 312.292 150.757 314.497 151.861C316.541 152.92 318.28 154.47 319.551 156.366C320.854 158.348 321.592 160.637 321.688 162.994V173.36C321.583 175.702 320.86 177.978 319.59 179.963C318.34 181.887 316.591 183.451 314.523 184.493C312.305 185.58 309.85 186.116 307.372 186.054ZM308.479 179.899C309.973 179.955 311.461 179.689 312.838 179.118C314.216 178.548 315.449 177.687 316.451 176.597C318.518 174.263 319.599 171.242 319.473 168.151C319.515 166.014 319.033 163.899 318.066 161.984C317.187 160.264 315.833 158.823 314.158 157.825C312.406 156.805 310.397 156.29 308.362 156.34C306.301 156.295 304.269 156.823 302.5 157.863C300.807 158.863 299.428 160.302 298.514 162.022C297.525 163.889 297.028 165.97 297.068 168.075C297.023 170.204 297.52 172.311 298.514 174.204C299.431 175.938 300.826 177.383 302.539 178.376C304.337 179.414 306.394 179.941 308.479 179.899ZM319.03 185.337V176.06L320.333 167.64L319.03 159.309V150.902H325.752V178.734C325.752 180.486 325.044 182.165 323.783 183.403C322.522 184.642 320.813 185.337 319.03 185.337Z" fill="#FF4806"/>
<path d="M335.414 185.335V150.899H342.044V178.809C342.044 180.537 341.346 182.195 340.103 183.419C338.86 184.642 337.174 185.331 335.414 185.335ZM342.044 165.756L339.543 164.591C339.342 160.846 340.434 157.144 342.644 154.085C343.704 152.779 345.067 151.742 346.62 151.06C348.173 150.379 349.869 150.074 351.567 150.17C353.215 150.148 354.851 150.457 356.373 151.078C357.915 151.767 359.275 152.796 360.346 154.085L355.996 158.513C355.324 157.779 354.491 157.206 353.56 156.837C352.566 156.486 351.515 156.316 350.459 156.338C349.344 156.298 348.233 156.482 347.193 156.881C346.154 157.279 345.208 157.883 344.415 158.654C342.843 160.206 342.053 162.574 342.044 165.756Z" fill="#FF4806"/>
<path d="M365 185.337V133.574H371.643V178.81C371.643 180.541 370.944 182.201 369.698 183.425C368.452 184.649 366.762 185.337 365 185.337ZM387.444 185.337L371.057 167.716L387.223 150.901H395.338L377.258 169.456L377.557 165.681L395.95 185.337H387.444Z" fill="#FF4806"/>
</g>
<defs>
<clipPath id="clip0_3020_432">
<rect width="65.0149" height="106.388" fill="white" transform="translate(165.492)"/>
</clipPath>
<clipPath id="clip1_3020_432">
<rect width="396" height="66.197" fill="white" transform="translate(0 133.574)"/>
</clipPath>
</defs>
</svg>
